<?xml version="1.0" standalone="no"?>
<!DOCTYPE svg PUBLIC "-//W3C//DTD SVG 20010904//EN"
 "http://www.w3.org/TR/2001/REC-SVG-20010904/DTD/svg10.dtd">
<svg version="1.0" xmlns="http://www.w3.org/2000/svg"
 width="900.000000pt" height="1101.000000pt" viewBox="0 0 900.000000 1101.000000"
 preserveAspectRatio="xMidYMid meet">
<metadata>
Created by potrace 1.10, written by Peter Selinger 2001-2011
</metadata>
<g transform="translate(0.000000,1101.000000) scale(0.100000,-0.100000)"
fill="#000000" stroke="none">
<path d="M1490 10510 l0 -500 248 2 247 3 5 240 c3 132 7 241 8 243 1 1 1460
2 3242 2 l3240 0 5 -22 c3 -13 4 -1924 3 -4248 l-3 -4225 -242 -3 c-184 -2
-243 -5 -243 -15 -3 -99 1 -471 5 -478 4 -5 203 -9 501 -9 l494 0 0 4755 0
4755 -3755 0 -3755 0 0 -500z"/>
<path d="M32 9469 l-32 -31 0 -4687 c0 -4425 1 -4687 18 -4707 9 -11 30 -26
45 -32 41 -17 7313 -17 7354 0 15 7 38 24 50 38 l22 25 1 4676 0 4676 -37 36
-36 37 -3677 0 -3676 0 -32 -31z m6947 -483 c8 -10 10 -1125 9 -4247 l-3
-4234 -3245 0 -3245 0 -3 4234 c-1 3122 1 4237 9 4247 17 21 6461 21 6478 0z"/>
<path d="M1888 7784 c-4 -3 -26 -10 -50 -15 -104 -23 -125 -40 -466 -388 -180
-183 -329 -339 -331 -345 -2 -6 -70 -77 -150 -157 -80 -81 -153 -162 -162
-180 -41 -86 -49 -114 -49 -167 0 -64 27 -152 66 -213 14 -22 231 -246 482
-498 336 -337 472 -466 513 -490 53 -30 61 -31 166 -31 86 0 113 3 123 15 7 8
19 15 27 15 38 0 130 103 167 186 14 33 17 60 14 135 -6 136 -21 162 -207 352
-85 86 -152 159 -149 162 3 3 1018 5 2257 5 1983 0 2256 2 2287 15 20 8 45 15
55 15 30 0 101 42 145 85 42 43 84 118 84 151 0 11 5 25 11 31 21 21 -2 176
-35 240 -22 42 -97 116 -139 136 -101 50 34 47 -2396 47 -1618 0 -2261 3
-2261 11 0 12 56 73 196 213 51 51 105 117 123 150 31 55 33 64 33 160 0 77
-5 111 -19 141 -45 100 -144 182 -243 202 -30 6 -62 14 -71 17 -8 4 -18 4 -21
0z"/>
<path d="M5406 4565 c-11 -8 -30 -15 -42 -15 -26 0 -142 -113 -165 -162 -16
-32 -35 -96 -46 -151 -3 -15 -1 -33 5 -40 5 -6 13 -32 17 -56 12 -70 59 -136
201 -278 135 -135 154 -160 132 -175 -7 -4 -1039 -8 -2293 -8 -2171 0 -2282
-1 -2315 -18 -82 -42 -153 -104 -166 -144 -3 -10 -10 -18 -15 -18 -5 0 -9 -10
-9 -23 0 -13 -5 -28 -11 -34 -6 -6 -14 -43 -17 -81 -5 -72 15 -156 45 -193 7
-8 13 -20 13 -25 1 -27 96 -106 163 -137 35 -16 182 -17 2332 -17 1381 0 2296
-4 2299 -9 4 -5 -61 -77 -144 -160 -82 -83 -150 -153 -150 -155 0 -3 -13 -24
-29 -48 -16 -24 -32 -63 -36 -88 -4 -24 -12 -52 -18 -61 -7 -11 -5 -30 7 -64
9 -27 16 -59 16 -73 0 -35 67 -130 119 -168 94 -68 236 -96 308 -60 15 8 45
22 66 32 22 11 224 207 516 499 477 479 521 529 521 591 0 11 5 25 11 31 18
18 -3 195 -26 223 -7 8 -14 21 -16 28 -10 32 -962 1005 -1001 1024 -87 42
-111 48 -181 48 -47 -1 -79 -6 -91 -15z"/>
</g>
</svg>
